<svg xmlns="http://www.w3.org/2000/svg" width="1260.249" height="295.006" viewBox="0 0 1260.249 295.006"><defs><style>.a{fill:#191e2f;}.b{fill:#151929;}</style></defs><g transform="translate(-8.5 -611.875)"><path class="a" d="M85.781-76.131a33.024,33.024,0,0,0-15.369-12.51h.357a28.267,28.267,0,0,0,3.4-17.692,28.389,28.389,0,0,0-7.327-15.727A29.133,29.133,0,0,0,52-130.816a26.981,26.981,0,0,0-17.692,1.787,33.944,33.944,0,0,0-11.259-22.16A33.162,33.162,0,0,0,0-160.125a33.162,33.162,0,0,0-23.054,8.936,33.944,33.944,0,0,0-11.259,22.16A26.981,26.981,0,0,0-52-130.816a29.133,29.133,0,0,0-14.833,8.757,28.389,28.389,0,0,0-7.327,15.727,27.034,27.034,0,0,0,3.753,17.692,33.024,33.024,0,0,0-15.369,12.51A33.42,33.42,0,0,0-91.5-57.187a33.085,33.085,0,0,0,10.008,24.3,33.085,33.085,0,0,0,24.3,10.008h45.75V-2.7L-22.264,14.6a5.72,5.72,0,0,0,5.115,8.278h34.3A5.72,5.72,0,0,0,22.264,14.6L11.438-2.7V-22.875h45.75a33.085,33.085,0,0,0,24.3-10.008A33.085,33.085,0,0,0,91.5-57.187,33.42,33.42,0,0,0,85.781-76.131Z" transform="translate(948 871)"/><path class="a" d="M85.781-76.131a33.024,33.024,0,0,0-15.369-12.51h.357a28.267,28.267,0,0,0,3.4-17.692,28.389,28.389,0,0,0-7.327-15.727A29.133,29.133,0,0,0,52-130.816a26.981,26.981,0,0,0-17.692,1.787,33.944,33.944,0,0,0-11.259-22.16A33.162,33.162,0,0,0,0-160.125a33.162,33.162,0,0,0-23.054,8.936,33.944,33.944,0,0,0-11.259,22.16A26.981,26.981,0,0,0-52-130.816a29.133,29.133,0,0,0-14.833,8.757,28.389,28.389,0,0,0-7.327,15.727,27.034,27.034,0,0,0,3.753,17.692,33.024,33.024,0,0,0-15.369,12.51A33.42,33.42,0,0,0-91.5-57.187a33.085,33.085,0,0,0,10.008,24.3,33.085,33.085,0,0,0,24.3,10.008h45.75V-2.7L-22.264,14.6a5.72,5.72,0,0,0,5.115,8.278h34.3A5.72,5.72,0,0,0,22.264,14.6L11.438-2.7V-22.875h45.75a33.085,33.085,0,0,0,24.3-10.008A33.085,33.085,0,0,0,91.5-57.187,33.42,33.42,0,0,0,85.781-76.131Z" transform="translate(590 875)"/><path class="a" d="M85.781-76.131a33.024,33.024,0,0,0-15.369-12.51h.357a28.267,28.267,0,0,0,3.4-17.692,28.389,28.389,0,0,0-7.327-15.727A29.133,29.133,0,0,0,52-130.816a26.981,26.981,0,0,0-17.692,1.787,33.944,33.944,0,0,0-11.259-22.16A33.162,33.162,0,0,0,0-160.125a33.162,33.162,0,0,0-23.054,8.936,33.944,33.944,0,0,0-11.259,22.16A26.981,26.981,0,0,0-52-130.816a29.133,29.133,0,0,0-14.833,8.757,28.389,28.389,0,0,0-7.327,15.727,27.034,27.034,0,0,0,3.753,17.692,33.024,33.024,0,0,0-15.369,12.51A33.42,33.42,0,0,0-91.5-57.187a33.085,33.085,0,0,0,10.008,24.3,33.085,33.085,0,0,0,24.3,10.008h45.75V-2.7L-22.264,14.6a5.72,5.72,0,0,0,5.115,8.278h34.3A5.72,5.72,0,0,0,22.264,14.6L11.438-2.7V-22.875h45.75a33.085,33.085,0,0,0,24.3-10.008A33.085,33.085,0,0,0,91.5-57.187,33.42,33.42,0,0,0,85.781-76.131Z" transform="translate(261 875)"/><path class="b" d="M105.469-93.6a40.6,40.6,0,0,0-18.9-15.381h.439a34.755,34.755,0,0,0,4.175-21.753,34.9,34.9,0,0,0-9.009-19.336A35.819,35.819,0,0,0,63.94-160.84a33.174,33.174,0,0,0-21.753,2.2,41.735,41.735,0,0,0-13.843-27.246A40.773,40.773,0,0,0,0-196.875a40.773,40.773,0,0,0-28.345,10.986,41.735,41.735,0,0,0-13.843,27.246,33.174,33.174,0,0,0-21.753-2.2,35.819,35.819,0,0,0-18.237,10.767,34.9,34.9,0,0,0-9.009,19.336,33.238,33.238,0,0,0,4.614,21.753,40.6,40.6,0,0,0-18.9,15.381A41.09,41.09,0,0,0-112.5-70.312,40.679,40.679,0,0,0-100.2-40.43a40.679,40.679,0,0,0,29.883,12.3h56.25V-3.318L-27.374,17.951a7.033,7.033,0,0,0,6.288,10.178h42.17a7.033,7.033,0,0,0,6.288-10.178L14.063-3.318V-28.125h56.25A40.679,40.679,0,0,0,100.2-40.43a40.679,40.679,0,0,0,12.3-29.883A41.09,41.09,0,0,0,105.469-93.6Z" transform="translate(121 878)"/><path class="a" d="M61.861-23.079,35.335-53.125H45.5a7.545,7.545,0,0,0,6.9-4.336,7.32,7.32,0,0,0-1.089-7.986L25.374-95.625h9.592a7.523,7.523,0,0,0,6.926-4.519,7.387,7.387,0,0,0-1.408-8L3.872-147.146a5.469,5.469,0,0,0-7.743,0l-36.616,39.007a7.394,7.394,0,0,0-1.408,8,7.527,7.527,0,0,0,6.93,4.519h9.592L-51.319-65.44A7.33,7.33,0,0,0-52.4-57.458a7.544,7.544,0,0,0,6.9,4.333h10.17L-61.861-23.079a7.34,7.34,0,0,0-1.182,8.055,7.7,7.7,0,0,0,6.976,4.4h45.442v8.118l-10.057,16.07a5.314,5.314,0,0,0,4.751,7.69H15.931a5.314,5.314,0,0,0,4.751-7.69L10.625-2.507v-8.118H56.067a7.7,7.7,0,0,0,6.976-4.4A7.34,7.34,0,0,0,61.861-23.079Z" transform="translate(1205 863)"/><path class="b" d="M138.281-122.725a53.236,53.236,0,0,0-24.775-20.166h.576a45.568,45.568,0,0,0,5.474-28.521,45.764,45.764,0,0,0-11.812-25.352,46.962,46.962,0,0,0-23.911-14.116Q69.72-214.336,55.313-208a54.719,54.719,0,0,0-18.149-35.723A53.459,53.459,0,0,0,0-258.125a53.459,53.459,0,0,0-37.163,14.4A54.719,54.719,0,0,0-55.312-208q-14.407-6.335-28.521-2.881a46.962,46.962,0,0,0-23.911,14.116,45.764,45.764,0,0,0-11.812,25.352q-2.014,14.692,6.05,28.521a53.236,53.236,0,0,0-24.775,20.166A53.874,53.874,0,0,0-147.5-92.187q0,23.05,16.133,39.18t39.18,16.133h73.75V-4.35L-35.89,23.536a9.221,9.221,0,0,0,8.245,13.344h55.29A9.221,9.221,0,0,0,35.89,23.536L18.438-4.35V-36.875h73.75q23.05,0,39.18-16.133T147.5-92.187A53.874,53.874,0,0,0,138.281-122.725Z" transform="translate(1102 870)"/><path class="b" d="M61.861-23.079,35.335-53.125H45.5a7.545,7.545,0,0,0,6.9-4.336,7.32,7.32,0,0,0-1.089-7.986L25.374-95.625h9.592a7.523,7.523,0,0,0,6.926-4.519,7.387,7.387,0,0,0-1.408-8L3.872-147.146a5.469,5.469,0,0,0-7.743,0l-36.616,39.007a7.394,7.394,0,0,0-1.408,8,7.527,7.527,0,0,0,6.93,4.519h9.592L-51.319-65.44A7.33,7.33,0,0,0-52.4-57.458a7.544,7.544,0,0,0,6.9,4.333h10.17L-61.861-23.079a7.34,7.34,0,0,0-1.182,8.055,7.7,7.7,0,0,0,6.976,4.4h45.442v8.118l-10.057,16.07a5.314,5.314,0,0,0,4.751,7.69H15.931a5.314,5.314,0,0,0,4.751-7.69L10.625-2.507v-8.118H56.067a7.7,7.7,0,0,0,6.976-4.4A7.34,7.34,0,0,0,61.861-23.079Z" transform="translate(320 885)"/></g></svg>